<svg version="1.1" xmlns="http://www.w3.org/2000/svg" viewBox="0 0 340 340">
<path d="M0 0 C1.32619016 1.00945402 2.65724831 2.01268258 4 3 C4.57105469 2.443125 5.14210937 1.88625 5.73046875 1.3125 C25.69408606 -17.47678688 50.98113139 -25.58846058 77.984375 -25.2109375 C106.10379061 -24.3369265 130.02691601 -10.95368337 149.24609375 9.0078125 C162.79270482 23.4862982 173.02590279 45.70109709 173.23828125 65.6171875 C173.246353 66.35139923 173.25442474 67.08561096 173.26274109 67.84207153 C173.27653611 69.39696937 173.28727864 70.95189691 173.29516602 72.50683594 C173.30659164 74.06780124 173.32689085 75.62873046 173.35668945 77.18945312 C173.6225808 91.15246248 171.58693674 103.42966928 165.6875 116.25 C165.23648926 117.24628418 165.23648926 117.24628418 164.77636719 118.26269531 C159.56414772 129.49695771 152.5235394 138.17250079 144 147 C143.36964844 147.68191406 142.73929687 148.36382812 142.08984375 149.06640625 C129.14582528 162.74483711 106.43506733 174.22877851 87.45751953 175.17700195 C86.09939346 175.20374068 84.74112454 175.22379667 83.3828125 175.23828125 C82.64860077 175.246353 81.91438904 175.25442474 81.15792847 175.26274109 C79.60303063 175.27653611 78.04810309 175.28727864 76.49316406 175.29516602 C74.93219876 175.30659164 73.37126954 175.32689085 71.81054688 175.35668945 C57.846637 175.62259795 45.57158415 173.58563725 32.75 167.6875 C32.08726074 167.38827637 31.42452148 167.08905273 30.74169922 166.78076172 C20.47791275 162.02813367 12.16231661 155.80820309 4 148 C3.05125 148.845625 2.1025 149.69125 1.125 150.5625 C-14.63344843 163.93995026 -35.56927861 175.01383346 -56.6171875 175.23828125 C-57.35139923 175.246353 -58.08561096 175.25442474 -58.84207153 175.26274109 C-60.39696937 175.27653611 -61.95189691 175.28727864 -63.50683594 175.29516602 C-65.06780124 175.30659164 -66.62873046 175.32689085 -68.18945312 175.35668945 C-82.15246248 175.6225808 -94.42966928 173.58693674 -107.25 167.6875 C-107.91418945 167.38682617 -108.57837891 167.08615234 -109.26269531 166.77636719 C-120.49695771 161.56414772 -129.17250079 154.5235394 -138 146 C-138.68191406 145.36964844 -139.36382812 144.73929688 -140.06640625 144.08984375 C-156.71615847 128.33403796 -166.26079424 103.09361939 -167.21875 80.5625 C-167.99280134 52.12706666 -158.70604124 26.80383866 -139.1796875 5.96484375 C-101.40081283 -33.49010146 -41.06427148 -34.68162255 0 0 Z M-109 39 C-119.81553138 53.39297637 -123.99964879 68.22077757 -121.5703125 86.17578125 C-118.44035954 100.76290768 -109.95732596 113.66290802 -97.5 121.875 C-83.37793374 130.23416178 -69.28776933 133.45918031 -52.875 129.9375 C-40.92425233 126.48399093 -29.00477725 119.50716588 -22 109 C-22.37247926 104.6981269 -23.28884375 100.53273406 -24.15576172 96.30664062 C-27.07048189 81.56858376 -26.76739441 67.42467207 -23.75390625 52.734375 C-23.50511719 51.50203125 -23.25632812 50.2696875 -23 49 C-22.73574219 47.77796875 -22.47148437 46.5559375 -22.19921875 45.296875 C-21.71641426 42.03489219 -21.71641426 42.03489219 -23.265625 39.59375 C-33.70502975 28.57894499 -47.1651543 20.75711134 -62.48046875 19.77734375 C-80.68949334 19.35042472 -96.59092037 25.2801021 -109 39 Z M31 39 C20.18446862 53.39297637 16.00035121 68.22077757 18.4296875 86.17578125 C21.55964046 100.76290768 30.04267404 113.66290802 42.5 121.875 C56.62206626 130.23416178 70.71223067 133.45918031 87.125 129.9375 C101.83721726 125.6859856 113.74715934 116.85244611 121.53515625 103.6953125 C129.19648176 89.59847356 131.64857004 74.7170284 127.09765625 58.96875 C120.92182087 42.26542299 110.31469355 31.26857376 94.375 23.6875 C72.08020068 14.54192211 47.00089894 21.30886525 31 39 Z " fill="#304FFF" transform="translate(167,95)"/>
</svg>
